{"title":"le sang a la tete gabin audiard.avi","uid":7846965,"size":734056448,"categoryP":"video","categoryS":"movies","magnet":"?xt=urn:btih:671918824352df351f4a9822f8cfbbea04386022&amp;dn=le+sang+a+la+tete+gabin+audiard.avi&amp;tr=udp%3A%2F%2Ftracker.openbittorrent.com%3A80&amp;tr=udp%3A%2F%2Fopen.demonii.com%3A1337&amp;tr=udp%3A%2F%2Ftracker.coppersurfer.tk%3A6969&amp;tr=udp%3A%2F%2Fexodus.desync.com%3A6969","seeders":0,"leechers":1,"uploader":"Bonie75","files":-1,"time":1353499022,"description":"FrancaisAudiardle sang a la tete gabin audiard.avi\nFormat                                   : AVI\nFormat/Info                              : Audio Video Interleave\nFile size                                : 700 MiB\nDuration                                 : 1h 21mn\nOverall bit rate mode                    : Variable\nOverall bit rate                         : 1 204 Kbps\nWriting application                      : VirtualDubMod 1.5.1.1a (build 1639/release)\nWriting library                          : VirtualDubMod build 1639/release\n\nVideo\nID                                       : 0\nFormat                                   : MPEG-4 Visual\nFormat settings, BVOP                    : 1\nFormat settings, QPel                    : No\nFormat settings, GMC                     : No warppoints\nFormat settings, Matrix                  : Default (H.263)\nMuxing mode                              : Packed bitstream\nCodec ID                                 : DX50\nCodec ID/Hint                            : DivX 5\nDuration                                 : 1h 21mn\nBit rate                                 : 1 102 Kbps\nWidth                                    : 352 pixels\nHeight                                   : 240 pixels\nDisplay aspect ratio                     : 3:2\nFrame rate                               : 25.000 fps\nStandard                                 : NTSC\nColor space                              : YUV\nChroma subsampling                       : 4:2:0\nBit depth                                : 8 bits\nScan type                                : Progressive\nCompression mode                         : Lossy\nBits/(Pixel*Frame)                       : 0.522\nStream size                              : 641 MiB (92%)\nWriting library                          : DivX 5.0.5 (UTC 2003-04-24)\n\nAudio\nID                                       : 1\nFormat                                   : MPEG Audio\nFormat version                           : Version 1\nFormat profile                           : Layer 3\nMode                                     : Joint stereo\nMode extension                           : MS Stereo\nCodec ID                                 : 55\nCodec ID/Hint                            : MP3\nDuration                                 : 1h 21mn\nBit rate mode                            : Variable\nBit rate                                 : 88.7 Kbps\nNominal bit rate                         : 128 Kbps\nChannel(s)                               : 2 channels\nSampling rate                            : 44.1 KHz\nCompression mode                         : Lossy\nStream size                              : 51.6 MiB (7%)\nAlignment                                : Aligned on interleaves\nInterleave, duration                     : 26 ms (0.65 video frame)\nInterleave, preload duration             : 508 ms\nWriting library                          : LAME3.93 \nEncoding settings                        : -m j -V 0 -q 2 -lowpass 15.4 --abr 128\n","torrent":{"xt":"urn:btih:671918824352df351f4a9822f8cfbbea04386022","amp;dn":"le+sang+a+la+tete+gabin+audiard.avi","amp;tr":["udp%3A%2F%2Ftracker.openbittorrent.com%3A80","udp%3A%2F%2Fopen.demonii.com%3A1337","udp%3A%2F%2Ftracker.coppersurfer.tk%3A6969","udp%3A%2F%2Fexodus.desync.com%3A6969"],"infoHash":"671918824352df351f4a9822f8cfbbea04386022","infoHashBuffer":{"type":"Buffer","data":[103,25,24,130,67,82,223,53,31,74,152,34,248,207,187,234,4,56,96,34]},"announce":[],"urlList":[]}}